<mxfile host="app.diagrams.net" modified="2021-03-01T10:23:12.537Z" agent="5.0 (Windows)" etag="CvCcBzWpE1qsU_m8C1NE" version="14.2.5" type="github">
  <diagram name="Page-1" id="e7e014a7-5840-1c2e-5031-d8a46d1fe8dd">
    <mxGraphModel dx="466" dy="801" grid="1" gridSize="10" guides="1" tooltips="1" connect="1" arrows="1" fold="1" page="1" pageScale="1" pageWidth="1169" pageHeight="826" background="#ffffff" math="0" shadow="0">
      <root>
        <mxCell id="0" />
        <mxCell id="1" parent="0" />
        <mxCell id="WqJWD33rQ4Z18YtDvQuM-42" value="Date Server" style="swimlane;" vertex="1" parent="1">
          <mxGeometry x="885" y="300" width="200" height="70" as="geometry" />
        </mxCell>
        <mxCell id="WqJWD33rQ4Z18YtDvQuM-44" value="&lt;div&gt;getDate()&lt;/div&gt;&lt;div&gt;&lt;br&gt;&lt;/div&gt;" style="text;html=1;align=center;verticalAlign=middle;resizable=0;points=[];autosize=1;" vertex="1" parent="WqJWD33rQ4Z18YtDvQuM-42">
          <mxGeometry y="30" width="70" height="30" as="geometry" />
        </mxCell>
        <mxCell id="WqJWD33rQ4Z18YtDvQuM-43" value="Email Server" style="swimlane;" vertex="1" parent="1">
          <mxGeometry x="885" y="200" width="200" height="80" as="geometry" />
        </mxCell>
        <mxCell id="WqJWD33rQ4Z18YtDvQuM-50" value="&lt;div&gt;sendEmail&lt;/div&gt;&lt;div&gt;&lt;br&gt;&lt;/div&gt;" style="text;html=1;align=center;verticalAlign=middle;resizable=0;points=[];autosize=1;" vertex="1" parent="1">
          <mxGeometry x="910" y="245" width="80" height="30" as="geometry" />
        </mxCell>
        <mxCell id="WqJWD33rQ4Z18YtDvQuM-52" value="Library app Exception" style="swimlane;" vertex="1" parent="1">
          <mxGeometry x="885" y="80" width="195" height="90" as="geometry" />
        </mxCell>
        <mxCell id="WqJWD33rQ4Z18YtDvQuM-53" value="Error message" style="text;html=1;align=center;verticalAlign=middle;resizable=0;points=[];autosize=1;" vertex="1" parent="1">
          <mxGeometry x="890" y="110" width="100" height="20" as="geometry" />
        </mxCell>
        <mxCell id="WqJWD33rQ4Z18YtDvQuM-54" value="CD" style="swimlane;" vertex="1" parent="1">
          <mxGeometry y="170" width="120" height="130" as="geometry" />
        </mxCell>
        <mxCell id="WqJWD33rQ4Z18YtDvQuM-55" value="Book" style="swimlane;" vertex="1" parent="1">
          <mxGeometry x="180" y="30" width="180" height="80" as="geometry" />
        </mxCell>
        <mxCell id="WqJWD33rQ4Z18YtDvQuM-58" value="&lt;div&gt;Fine&lt;/div&gt;&lt;div&gt;maxNumberOfDays&lt;br&gt;&lt;/div&gt;&lt;div&gt;asMediumInfo&lt;br&gt;&lt;/div&gt;" style="text;html=1;align=center;verticalAlign=middle;resizable=0;points=[];autosize=1;" vertex="1" parent="1">
          <mxGeometry y="215" width="120" height="50" as="geometry" />
        </mxCell>
        <mxCell id="WqJWD33rQ4Z18YtDvQuM-63" value="Medium" style="swimlane;fontStyle=1;align=center;verticalAlign=top;childLayout=stackLayout;horizontal=1;startSize=26;horizontalStack=0;resizeParent=1;resizeParentMax=0;resizeLast=0;collapsible=1;marginBottom=0;" vertex="1" parent="1">
          <mxGeometry x="180" y="140" width="180" height="170" as="geometry" />
        </mxCell>
        <mxCell id="WqJWD33rQ4Z18YtDvQuM-64" value="Title&#xa;Author&#xa;signature&#xa;duedate&#xa;&#xa;&#xa;&#xa;" style="text;strokeColor=none;fillColor=none;align=left;verticalAlign=top;spacingLeft=4;spacingRight=4;overflow=hidden;rotatable=0;points=[[0,0.5],[1,0.5]];portConstraint=eastwest;" vertex="1" parent="WqJWD33rQ4Z18YtDvQuM-63">
          <mxGeometry y="26" width="180" height="94" as="geometry" />
        </mxCell>
        <mxCell id="WqJWD33rQ4Z18YtDvQuM-65" value="" style="line;strokeWidth=1;fillColor=none;align=left;verticalAlign=middle;spacingTop=-1;spacingLeft=3;spacingRight=3;rotatable=0;labelPosition=right;points=[];portConstraint=eastwest;" vertex="1" parent="WqJWD33rQ4Z18YtDvQuM-63">
          <mxGeometry y="120" width="180" height="8" as="geometry" />
        </mxCell>
        <mxCell id="WqJWD33rQ4Z18YtDvQuM-66" value="match()&#xa;isOverdue()" style="text;strokeColor=none;fillColor=none;align=left;verticalAlign=top;spacingLeft=4;spacingRight=4;overflow=hidden;rotatable=0;points=[[0,0.5],[1,0.5]];portConstraint=eastwest;" vertex="1" parent="WqJWD33rQ4Z18YtDvQuM-63">
          <mxGeometry y="128" width="180" height="42" as="geometry" />
        </mxCell>
        <mxCell id="WqJWD33rQ4Z18YtDvQuM-68" value="Library App" style="swimlane;fontStyle=1;align=center;verticalAlign=top;childLayout=stackLayout;horizontal=1;startSize=26;horizontalStack=0;resizeParent=1;resizeParentMax=0;resizeLast=0;collapsible=1;marginBottom=0;" vertex="1" parent="1">
          <mxGeometry x="550" y="70" width="190" height="320" as="geometry" />
        </mxCell>
        <mxCell id="WqJWD33rQ4Z18YtDvQuM-69" value="LoggedIn&#xa;mediumRepository&#xa;userRepository&#xa;" style="text;strokeColor=none;fillColor=none;align=left;verticalAlign=top;spacingLeft=4;spacingRight=4;overflow=hidden;rotatable=0;points=[[0,0.5],[1,0.5]];portConstraint=eastwest;" vertex="1" parent="WqJWD33rQ4Z18YtDvQuM-68">
          <mxGeometry y="26" width="190" height="84" as="geometry" />
        </mxCell>
        <mxCell id="WqJWD33rQ4Z18YtDvQuM-70" value="" style="line;strokeWidth=1;fillColor=none;align=left;verticalAlign=middle;spacingTop=-1;spacingLeft=3;spacingRight=3;rotatable=0;labelPosition=right;points=[];portConstraint=eastwest;" vertex="1" parent="WqJWD33rQ4Z18YtDvQuM-68">
          <mxGeometry y="110" width="190" height="8" as="geometry" />
        </mxCell>
        <mxCell id="WqJWD33rQ4Z18YtDvQuM-71" value="&#xa;adminLogin()&#xa;adminLogout()&#xa;&#xa;addMedium()&#xa;search()&#xa;registerUser()&#xa;borrowMedium&#xa;sendReminder&#xa;payFine&#xa;canBorrow&#xa;unregister&#xa;returnUserMedium" style="text;strokeColor=none;fillColor=none;align=left;verticalAlign=top;spacingLeft=4;spacingRight=4;overflow=hidden;rotatable=0;points=[[0,0.5],[1,0.5]];portConstraint=eastwest;" vertex="1" parent="WqJWD33rQ4Z18YtDvQuM-68">
          <mxGeometry y="118" width="190" height="202" as="geometry" />
        </mxCell>
        <mxCell id="WqJWD33rQ4Z18YtDvQuM-73" value="User" style="swimlane;fontStyle=1;align=center;verticalAlign=top;childLayout=stackLayout;horizontal=1;startSize=26;horizontalStack=0;resizeParent=1;resizeParentMax=0;resizeLast=0;collapsible=1;marginBottom=0;" vertex="1" parent="1">
          <mxGeometry x="30" y="370" width="160" height="260" as="geometry" />
        </mxCell>
        <mxCell id="WqJWD33rQ4Z18YtDvQuM-74" value="MaxNumberOfBooks&#xa;cpr&#xa;name&#xa;email&#xa;address&#xa;borrowedMedia&#xa;fine&#xa;hasFine&#xa;" style="text;strokeColor=none;fillColor=none;align=left;verticalAlign=top;spacingLeft=4;spacingRight=4;overflow=hidden;rotatable=0;points=[[0,0.5],[1,0.5]];portConstraint=eastwest;" vertex="1" parent="WqJWD33rQ4Z18YtDvQuM-73">
          <mxGeometry y="26" width="160" height="124" as="geometry" />
        </mxCell>
        <mxCell id="WqJWD33rQ4Z18YtDvQuM-75" value="" style="line;strokeWidth=1;fillColor=none;align=left;verticalAlign=middle;spacingTop=-1;spacingLeft=3;spacingRight=3;rotatable=0;labelPosition=right;points=[];portConstraint=eastwest;" vertex="1" parent="WqJWD33rQ4Z18YtDvQuM-73">
          <mxGeometry y="150" width="160" height="8" as="geometry" />
        </mxCell>
        <mxCell id="WqJWD33rQ4Z18YtDvQuM-76" value="returnMedium&#xa;borrowMedium&#xa;canBorrow&#xa;hasOverdueMedia&#xa;sendEmailReminder&#xa;payFine&#xa;" style="text;strokeColor=none;fillColor=none;align=left;verticalAlign=top;spacingLeft=4;spacingRight=4;overflow=hidden;rotatable=0;points=[[0,0.5],[1,0.5]];portConstraint=eastwest;" vertex="1" parent="WqJWD33rQ4Z18YtDvQuM-73">
          <mxGeometry y="158" width="160" height="102" as="geometry" />
        </mxCell>
      </root>
    </mxGraphModel>
  </diagram>
</mxfile>
